<svg xmlns="http://www.w3.org/2000/svg" width="201" height="101.944" viewBox="0 0 201 101.944">
  <path id="zaKKuri_rogo" d="M143.122,98.177a9.61,9.61,0,0,1-2.442-6.9V66.08h5.534V89.615q0,6.608,5.86,6.608a9.453,9.453,0,0,0,5.664-2.148,15.385,15.385,0,0,0,4.134-4.753V66.08h5.4v34.05h-5.209V93.88a15.854,15.854,0,0,1-5.6,5.4,12.836,12.836,0,0,1-6.25,1.66A9.277,9.277,0,0,1,143.122,98.177ZM28.684,97.852a9.742,9.742,0,0,1-2.409-6.836q0-9.213,11.2-11.2A88.7,88.7,0,0,1,48.15,78.743v-1.79q0-4.362-1.921-6.087-1.66-1.53-5.273-1.53-6.544,0-8.269,6.478l-5.143-1.6q2.8-8.952,13.542-8.952,12.337,0,12.338,11.328V89.062a87.253,87.253,0,0,0,.651,11.068H49.16a43.164,43.164,0,0,1-.749-5.4,13.358,13.358,0,0,1-11.654,6.217Q31.516,100.944,28.684,97.852Zm9.994-14.323q-7.128,1.53-7.129,7.226a5.762,5.762,0,0,0,1.921,4.655,6.9,6.9,0,0,0,4.622,1.465q5.989,0,10.059-6.738v-7.65A50.8,50.8,0,0,0,38.677,83.528ZM193.3,100.13V66.08h5.469v34.05Zm-19.081,0V66.08h5.209v8.659q3.646-9.408,11.067-9.408L190.1,70.6a8.838,8.838,0,0,0-6.38,2.865,16.837,16.837,0,0,0-4.1,7.129V100.13Zm-42.459,0L114.926,74.739l-7.52,7.942V100.13h-5.729V51.009h5.729V76.139l22.331-25.131h6.934L118.734,70.8l19.792,29.33Zm-40.728,0L74.2,74.739l-7.52,7.942V100.13H60.949V51.009h5.729V76.139L89.009,51.009h6.934L78.007,70.8,97.8,100.13ZM0,100.13V96.517L18.392,70.15H1.074V66.08h23.47v3.549l-18.49,26.5H25v4ZM192,58.223a4,4,0,1,1,4,4A4,4,0,0,1,192,58.223Zm-19.831-6.472h0C163.707,44.77,153.1,39.124,140.646,34.97a124.042,124.042,0,0,0-77.811,0c-12.455,4.154-23.06,9.8-31.521,16.782h-.721v-11.2A136.686,136.686,0,0,1,47.286,31.64,130.6,130.6,0,0,1,64.8,25.278a132.724,132.724,0,0,1,18.332-3.818,142.6,142.6,0,0,1,17.686-1.265c.128-.007.744-.007.925-.006h.924a143.836,143.836,0,0,1,17.686,1.271,132.839,132.839,0,0,1,18.332,3.818A130.791,130.791,0,0,1,156.2,31.64a136.688,136.688,0,0,1,16.693,8.907v11.2ZM101.332,10.223a10.223,10.223,0,1,1,10.223,10.223A10.223,10.223,0,0,1,101.332,10.223Zm-20.444,0A10.222,10.222,0,1,1,91.11,20.445,10.223,10.223,0,0,1,80.887,10.223Z" transform="translate(0.5 0.5)" fill="#3e3a39" stroke="rgba(0,0,0,0)" stroke-width="1"/>
</svg>
